<svg width="20" height="21" viewBox="0 0 20 21" fill="none" xmlns="http://www.w3.org/2000/svg">
<path fill-rule="evenodd" clip-rule="evenodd" d="M6 0.474579H18C19.1 0.474579 20 1.37458 20 2.47458V14.4746C20 15.5746 19.1 16.4746 18 16.4746H6C4.9 16.4746 4 15.5746 4 14.4746V2.47458C4 1.37458 4.9 0.474579 6 0.474579ZM18 14.4746V2.47458H6V14.4746H18ZM9.5 10.1446L11.19 12.4046L13.67 9.30458L17 13.4746H7L9.5 10.1446ZM0 18.4746V4.47458H2V18.4746H16V20.4746H2C0.9 20.4746 0 19.5746 0 18.4746Z" fill="black" fill-opacity="0.54"/>
</svg>
