<svg width="28" height="21" viewBox="0 0 28 21" fill="none" xmlns="http://www.w3.org/2000/svg">
<path d="M0.5 19.4746C0.5 19.7507 0.723858 19.9746 1 19.9746H27C27.2761 19.9746 27.5 19.7507 27.5 19.4746V1.47458C27.5 1.19844 27.2761 0.974579 27 0.974579H1C0.723858 0.974579 0.5 1.19844 0.5 1.47458V19.4746Z" stroke="#555555" stroke-linejoin="round"/>
<path fill-rule="evenodd" clip-rule="evenodd" d="M22.9431 2.47458H21.784V17.4746H22.9431V2.47458ZM17.1477 4.47458C17.1477 5.30458 17.9243 5.97458 18.8863 5.97458C19.8483 5.97458 20.6249 5.30458 20.6249 4.47458C20.6249 3.64458 19.8483 2.97458 18.8863 2.97458C17.9243 2.97458 17.1477 3.64458 17.1477 4.47458ZM17.7272 8.47458C17.7272 9.02458 18.2488 9.47458 18.8863 9.47458C19.5238 9.47458 20.0454 9.02458 20.0454 8.47458C20.0454 7.92458 19.5238 7.47458 18.8863 7.47458C18.2488 7.47458 17.7272 7.92458 17.7272 8.47458ZM14.2499 9.47458C13.6124 9.47458 13.0908 9.02458 13.0908 8.47458C13.0908 7.92458 13.6124 7.47458 14.2499 7.47458C14.8874 7.47458 15.409 7.92458 15.409 8.47458C15.409 9.02458 14.8874 9.47458 14.2499 9.47458ZM9.61357 5.97458C8.65152 5.97458 7.87493 5.30458 7.87493 4.47458C7.87493 3.64458 8.65152 2.97458 9.61357 2.97458C10.5756 2.97458 11.3522 3.64458 11.3522 4.47458C11.3522 5.30458 10.5756 5.97458 9.61357 5.97458ZM5.55675 17.4746V2.47458H6.71584V17.4746H5.55675ZM14.2499 5.97458C13.2879 5.97458 12.5113 5.30458 12.5113 4.47458C12.5113 3.64458 13.2879 2.97458 14.2499 2.97458C15.212 2.97458 15.9886 3.64458 15.9886 4.47458C15.9886 5.30458 15.212 5.97458 14.2499 5.97458ZM8.45448 8.47458C8.45448 9.02458 8.97607 9.47458 9.61357 9.47458C10.2511 9.47458 10.7727 9.02458 10.7727 8.47458C10.7727 7.92458 10.2511 7.47458 9.61357 7.47458C8.97607 7.47458 8.45448 7.92458 8.45448 8.47458ZM9.61357 16.9746C9.28902 16.9746 9.03402 16.7546 9.03402 16.4746C9.03402 16.1946 9.28902 15.9746 9.61357 15.9746C9.93812 15.9746 10.1931 16.1946 10.1931 16.4746C10.1931 16.7546 9.93812 16.9746 9.61357 16.9746ZM18.8863 16.9746C18.5618 16.9746 18.3068 16.7546 18.3068 16.4746C18.3068 16.1946 18.5618 15.9746 18.8863 15.9746C19.2108 15.9746 19.4658 16.1946 19.4658 16.4746C19.4658 16.7546 19.2108 16.9746 18.8863 16.9746ZM13.6704 16.4746C13.6704 16.7546 13.9254 16.9746 14.2499 16.9746C14.5745 16.9746 14.8295 16.7546 14.8295 16.4746C14.8295 16.1946 14.5745 15.9746 14.2499 15.9746C13.9254 15.9746 13.6704 16.1946 13.6704 16.4746ZM18.8863 13.4746C18.2488 13.4746 17.7272 13.0246 17.7272 12.4746C17.7272 11.9246 18.2488 11.4746 18.8863 11.4746C19.5238 11.4746 20.0454 11.9246 20.0454 12.4746C20.0454 13.0246 19.5238 13.4746 18.8863 13.4746ZM13.0908 12.4746C13.0908 13.0246 13.6124 13.4746 14.2499 13.4746C14.8874 13.4746 15.409 13.0246 15.409 12.4746C15.409 11.9246 14.8874 11.4746 14.2499 11.4746C13.6124 11.4746 13.0908 11.9246 13.0908 12.4746ZM9.61357 13.4746C8.97607 13.4746 8.45448 13.0246 8.45448 12.4746C8.45448 11.9246 8.97607 11.4746 9.61357 11.4746C10.2511 11.4746 10.7727 11.9246 10.7727 12.4746C10.7727 13.0246 10.2511 13.4746 9.61357 13.4746Z" fill="#555555"/>
<path d="M25 2.47458H24V17.4746H25V2.47458Z" fill="#555555"/>
<path d="M4 2.47458H3L3 17.4746H4L4 2.47458Z" fill="#555555"/>
</svg>
